<svg viewBox="0 0 694 94" fill="none" xmlns="http://www.w3.org/2000/svg">
    <path d="M37.0526 91.1001L56.7086 2.90005H39.5726L28.6106 56.8281L17.6486 2.90005H0.512573L20.2946 91.1001H37.0526Z" fill="#9CD8F1"/>
    <path d="M65.0659 81.5241H84.9739L86.6119 91.1001H103.748L83.9659 2.90005H65.9479L46.1659 91.1001H63.3019L65.0659 81.5241ZM67.8379 65.2701L75.0199 25.0761L82.0759 65.2701H67.8379Z" fill="#9CD8F1"/>
    <path d="M143.202 28.7301V39.0621H160.338V28.7301C160.338 7.05806 143.202 0.758057 133.5 0.758057C123.798 0.758057 106.662 7.05806 106.662 28.7301V65.2701C106.662 86.9421 123.798 93.2421 133.5 93.2421C143.202 93.2421 160.338 86.9421 160.338 65.2701V55.3161H143.202V65.2701C143.202 73.2081 138.414 76.3581 133.5 76.3581C128.586 76.3581 123.798 73.2081 123.798 65.2701V28.7301C123.798 20.7921 128.586 17.6421 133.5 17.6421C138.414 17.6421 143.202 20.7921 143.202 28.7301Z" fill="#9CD8F1"/>
    <path d="M181.714 81.5241H201.622L203.26 91.1001H220.396L200.614 2.90005H182.596L162.814 91.1001H179.95L181.714 81.5241ZM184.486 65.2701L191.668 25.0761L198.724 65.2701H184.486Z" fill="#9CD8F1"/>
    <path d="M279.758 91.1001V2.90005H262.622L263.756 56.5761L241.706 2.90005H224.57V91.1001H241.706L240.572 37.4241L262.622 91.1001H279.758Z" fill="#9CD8F1"/>
    <path d="M324.081 28.7301V39.0621H341.217V28.7301C341.217 7.05806 324.081 0.758057 314.379 0.758057C304.677 0.758057 287.541 7.05806 287.541 28.7301V65.2701C287.541 86.9421 304.677 93.2421 314.379 93.2421C324.081 93.2421 341.217 86.9421 341.217 65.2701V55.3161H324.081V65.2701C324.081 73.2081 319.293 76.3581 314.379 76.3581C309.465 76.3581 304.677 73.2081 304.677 65.2701V28.7301C304.677 20.7921 309.465 17.6421 314.379 17.6421C319.293 17.6421 324.081 20.7921 324.081 28.7301Z" fill="#9CD8F1"/>
    <path d="M379.225 63.2541L398.377 2.90005H381.241L370.657 41.9601L359.947 2.90005H342.811L361.963 63.2541V91.1001H379.225V63.2541Z" fill="#9CD8F1"/>
    <path d="M397.348 2.90005V91.1001H401.758V2.90005H397.348ZM418.894 91.1001H442.834V2.90005H441.826V19.1541H418.894V39.0621H439.18V55.3161H418.894V91.1001Z" fill="#9CD8F1"/>
    <path d="M445.41 3H441V91.2H445.41V3ZM462.672 91.2H467.082V3H462.672V91.2Z" fill="#9CD8F1"/>
    <path d="M467 3V91.2H471.662V3H467ZM487.538 37.524L488.672 91.2H509.588L487.538 37.524ZM488.672 3L510.596 56.676L509.588 3H488.672ZM526.598 91.2H531.26V3H526.598V91.2Z" fill="#9CD8F1"/>
    <path d="M531 3V91.2H535.41V3H531ZM552.672 74.316H557.082C561.996 74.316 566.784 73.308 566.784 65.37V28.83C566.784 20.892 561.996 19.884 557.082 19.884H552.672V74.316ZM557.082 91.2H587.322V3H557.082C566.784 3 584.046 7.158 584.046 28.83V65.37C584.046 87.042 566.784 91.2 557.082 91.2Z" fill="#9CD8F1"/>
    <path d="M587 3V91.2H591.41V3H587ZM608.672 74.946H634.376V91.2H636.77V3H634.376V19.254H608.672V39.162H630.974V55.416H608.672V74.946Z" fill="#9CD8F1"/>
    <path d="M635 3V91.2H639.662V3H635ZM656.672 91.2H675.698L663.35 63.228H656.672V91.2ZM656.672 46.848H663.728C667.13 46.848 674.06 44.832 674.06 33.114C674.06 21.396 667.13 19.254 663.728 19.254H656.672V46.848ZM662.846 3C678.848 3 690.44 13.458 690.44 33.114C690.44 45.336 685.904 54.03 678.596 58.818L692.834 91.2H693.968V3H662.846Z" fill="#9CD8F1"/>
    </svg>
    